PathFileType	4	(X/Y/Z)	D:\TRACE\spotREDO_2-26-24\spot_justBody_Motion_2_3-platform.trc
DataRate	CameraRate	NumFrames	NumMarkers	Units	OrigDataRate	OrigDataStartFrame	OrigNumFrames
100.00	100.00	      60	5	mm	100.00	2626	      7000
Frame#	Time	Left_Front			Right_Front			Left_Aft			Right_Aft			Post			
		X1	Y1	Z1	X2	Y2	Z2	X3	Y3	Z3	X4	Y4	Z4	X5	Y5	Z5	

2626	26.250	-679.93622	42.66203	-561.54486	734.75519	45.24017	-477.39066	-750.68579	-44.13735	654.26178	819.43604	-36.76112	657.57935	29.01916	699.97302	-917.08148	
2627	26.260	-680.73480	41.71363	-561.88550	733.58624	44.77856	-477.81091	-751.65973	-43.28154	653.98602	818.31561	-35.85725	657.75751	28.23634	698.89044	-918.01416	
2628	26.270	-682.07990	40.98225	-562.18549	732.63141	43.83773	-477.89517	-752.84930	-42.60432	653.87018	817.43323	-35.36508	657.39392	27.03736	697.58685	-919.32104	
2629	26.280	-683.23956	40.47434	-562.46448	731.75665	43.15493	-478.25159	-753.81012	-41.60992	653.79742	816.68188	-34.46680	657.22357	26.00434	696.31085	-920.64368	
2630	26.290	-684.33759	39.59455	-562.75952	730.40692	42.45448	-478.61166	-754.77521	-40.78777	653.54944	815.66327	-33.27910	656.90546	24.95106	694.83118	-922.09796	
2631	26.300	-685.16858	38.45599	-563.04602	729.63531	41.69316	-478.80621	-755.97479	-39.79392	653.48450	814.52960	-32.42412	656.70123	24.02369	693.43420	-923.55127	
2632	26.310	-686.15973	37.72740	-563.27014	728.42120	41.06281	-479.17337	-757.06525	-38.91691	653.26624	813.37683	-31.50396	656.66907	23.10143	692.19556	-924.91882	
2633	26.320	-687.40485	36.91768	-563.58185	727.30566	40.06471	-479.46201	-758.16754	-37.71976	653.21924	812.25555	-30.51432	656.46735	21.84369	690.70251	-926.61572	
2634	26.330	-688.49426	36.08848	-563.89746	726.32318	39.38253	-479.56927	-759.16882	-36.96985	653.06866	811.04211	-29.49785	656.16071	21.02601	689.13763	-927.83038	
2635	26.340	-689.39142	34.71278	-564.12897	725.18909	38.37165	-479.98950	-760.32831	-35.72876	652.78009	810.16370	-28.64234	655.93323	19.71594	687.63446	-929.14227	
2636	26.350	-690.63385	33.99101	-564.51923	723.99554	37.84650	-480.46771	-761.31482	-35.09918	652.55353	808.93707	-27.68652	655.66199	18.69722	686.06415	-930.42920	
2637	26.360	-691.86450	33.16592	-564.81555	722.88812	37.08659	-480.79111	-762.66614	-33.90013	652.29047	807.83997	-26.66180	655.48181	17.41513	684.44910	-931.60895	
2638	26.370	-692.91467	32.03375	-565.21326	721.94507	36.00858	-480.93649	-763.54401	-32.99633	651.99329	806.69861	-25.45207	655.44110	16.50733	682.94409	-932.93219	
2639	26.380	-693.86462	30.93733	-565.49078	720.80688	35.10766	-480.98923	-764.79272	-31.69583	651.82349	805.64935	-24.58635	655.32874	15.02228	681.39532	-934.20490	
2640	26.390	-695.14337	30.07354	-565.90637	719.80621	34.38929	-481.71970	-765.87305	-30.60505	651.68781	804.27136	-23.46523	654.83521	14.07041	679.69196	-935.39807	
2641	26.400	-696.37408	29.08247	-566.07776	718.24005	33.51552	-481.95221	-766.96411	-29.53485	651.31122	803.21832	-22.46206	654.55847	12.96844	677.98041	-936.66278	
2642	26.410	-697.26367	27.83201	-566.47546	717.45337	32.45164	-482.19632	-768.19849	-28.40618	651.16211	802.36383	-21.41063	654.56250	11.51608	676.13568	-938.25360	
2643	26.420	-698.40814	26.83359	-566.91675	716.47186	31.37753	-482.36502	-769.20789	-27.37187	650.82123	800.94220	-19.92056	654.16309	10.32780	674.37549	-939.97467	
2644	26.430	-699.67749	25.93764	-567.12012	715.16339	30.57768	-482.93784	-770.37518	-26.07448	650.69489	799.78351	-18.84470	654.15869	8.83793	672.57715	-941.81549	
2645	26.440	-700.87061	24.48726	-567.42706	713.88690	29.44912	-483.22845	-771.57349	-24.88116	650.41321	798.26495	-17.76028	653.86768	8.47937	670.74292	-943.48871	
2646	26.450	-701.73462	23.55337	-567.88861	712.94757	28.60566	-483.51834	-772.74445	-23.62114	650.31964	797.32727	-16.43213	653.60321	7.35530	668.76959	-945.22461	
2647	26.460	-703.05090	22.39663	-568.25580	711.66412	27.49671	-483.86334	-773.98059	-22.51192	649.86975	796.07056	-15.17329	653.27814	6.39810	666.91888	-946.72955	
2648	26.470	-704.06091	20.95811	-568.53442	710.79993	26.48645	-484.12805	-774.92743	-21.56771	649.79681	795.53931	-14.20637	653.19073	6.22674	664.87885	-948.56927	
2649	26.480	-705.21124	20.22398	-568.94965	709.33948	25.49794	-484.67392	-776.30255	-20.09649	649.32501	794.20044	-12.97240	652.70911	4.97769	663.02527	-950.18353	
2650	26.490	-706.15033	18.98643	-569.13763	708.29211	24.85947	-485.07123	-777.08228	-18.80777	649.27264	792.73889	-11.76420	652.58740	3.30354	661.14191	-951.89038	
2651	26.500	-707.46558	17.61862	-569.59772	707.29138	23.31976	-485.29443	-778.41339	-17.45651	648.86108	791.76678	-9.97056	652.39325	2.23417	659.16473	-953.43634	
2652	26.510	-708.64032	16.53558	-570.02905	706.15082	22.49452	-485.70346	-779.36261	-16.52483	648.56323	790.45367	-9.15779	652.15967	1.24538	657.22357	-954.66010	
2653	26.520	-709.75568	15.14729	-570.26453	705.22430	21.29373	-485.93286	-780.68274	-15.28147	648.36285	789.40015	-7.93236	651.74976	0.00518	655.33978	-956.35889	
2654	26.530	-710.65387	14.12534	-570.59247	703.98053	20.37034	-486.23001	-781.80811	-13.95355	647.85913	788.09106	-6.78972	651.40442	-1.32216	653.30280	-957.71179	
2655	26.540	-711.97028	13.01987	-571.04120	702.68018	19.40013	-486.79388	-782.93549	-12.73932	647.75714	787.07025	-5.10689	651.34540	-2.40886	651.29938	-959.52814	
2656	26.550	-712.96887	11.50953	-571.30261	701.64636	18.42996	-487.01144	-784.07281	-11.24000	647.43713	785.64990	-3.89058	651.10205	-3.54865	649.46552	-961.14142	
2657	26.560	-714.23108	10.61651	-571.80554	700.79926	17.20999	-487.18042	-785.19598	-10.26438	647.05859	785.02667	-2.80727	650.70856	-4.36077	647.34076	-962.45612	
2658	26.570	-715.13354	9.24837	-572.00903	699.21417	16.24583	-487.76450	-786.46924	-8.83714	646.69574	783.83978	-1.59648	650.17017	-5.58472	645.18280	-964.40863	
2659	26.580	-716.28601	8.04027	-572.31964	698.52295	14.99934	-488.03958	-787.53656	-7.73683	646.27191	782.98822	-0.20352	650.19043	-6.77577	643.16907	-966.03894	
2660	26.590	-717.43353	6.76792	-572.74231	697.14514	13.89890	-488.39157	-788.35168	-6.41640	646.07202	781.57574	1.01152	649.62646	-7.51813	640.91095	-967.89972	
2661	26.600	-718.57245	5.26195	-573.17896	696.25092	12.89737	-488.69882	-789.61658	-4.73572	645.67615	780.25470	2.36267	649.28119	-8.79296	638.94385	-969.44574	
2662	26.610	-719.62933	4.34609	-573.43774	695.00049	11.70586	-489.00558	-790.76563	-3.35779	645.41241	779.24335	3.67454	648.85895	-9.98543	636.81989	-971.59729	
2663	26.620	-720.70392	2.86296	-573.71356	694.01453	10.67201	-489.49850	-791.53625	-1.93897	645.35980	778.33514	5.22505	648.68585	-11.06197	634.50964	-973.18726	
2664	26.630	-721.75555	1.56229	-574.20453	693.03156	9.45789	-489.69437	-793.01971	-0.77033	644.78961	777.37714	6.25969	648.37738	-12.10041	632.24579	-975.29266	
2665	26.640	-722.95905	0.32059	-574.50470	691.95313	8.48157	-490.19214	-793.84613	0.40086	644.63080	776.07281	7.43565	647.93506	-13.34566	630.20007	-976.68420	
2666	26.650	-723.87970	-1.07153	-574.85394	691.03052	7.23896	-490.41489	-794.93927	1.62343	643.82745	775.14978	8.89549	647.57990	-14.36237	628.31110	-978.44720	
2667	26.660	-724.84271	-2.12068	-575.22571	689.75909	6.15824	-490.75140	-796.09595	3.39160	643.89679	774.20337	10.39002	647.39886	-15.29900	626.12646	-980.02502	
2668	26.670	-725.88605	-3.34704	-575.35620	688.92517	5.35676	-491.18967	-797.00079	4.37729	643.32715	773.11072	11.51647	647.09918	-15.98670	623.95630	-981.46490	
2669	26.680	-726.90869	-4.70761	-575.76019	687.65234	4.08241	-491.47137	-798.17218	5.78019	643.05188	772.03619	12.79085	646.58008	-17.12043	621.96777	-983.24158	
2670	26.690	-728.14185	-5.79519	-576.25513	686.87598	2.90330	-491.86237	-798.92297	6.81094	642.67352	771.00916	14.08074	646.26331	-18.12774	619.96991	-984.37543	
2671	26.700	-728.97168	-7.40586	-576.61847	685.99420	1.81920	-492.09714	-800.10315	8.16012	642.38220	770.02264	15.49225	645.90009	-19.35049	617.82233	-986.22943	
2672	26.710	-730.02704	-8.54647	-576.81207	684.72516	0.64530	-492.39856	-801.01654	9.53271	641.96680	768.56470	16.64514	645.69897	-20.42719	616.01227	-987.92657	
2673	26.720	-730.70685	-9.79121	-577.04016	683.83105	-0.10793	-492.92981	-801.88354	10.75307	641.71155	768.19775	17.88842	645.12787	-21.51626	613.48352	-989.49689	
2674	26.730	-731.59308	-10.86550	-577.28259	682.97778	-1.48693	-493.07153	-803.11188	12.59699	641.37207	767.57092	19.18933	644.99377	-22.00345	611.30786	-991.10211	
2675	26.740	-732.75708	-11.96529	-577.65015	682.19141	-2.49513	-493.34305	-803.55548	13.30731	641.10339	766.25299	20.64220	644.58356	-23.18672	609.17053	-992.67719	
2676	26.750	-733.37042	-13.66875	-578.08447	680.81464	-3.76931	-493.84302	-804.73743	14.71409	640.58258	765.07861	21.68700	644.20538	-23.78203	606.92639	-994.44940	
2677	26.760	-734.49860	-14.62003	-578.40759	680.41339	-4.62928	-494.05692	-805.76996	15.95806	640.25940	764.62842	23.18430	643.75012	-25.13348	604.86877	-996.13239	
2678	26.770	-735.35400	-16.08490	-578.50983	679.74847	-5.96332	-494.11691	-806.65881	17.30930	639.86108	763.49878	24.36095	643.67780	-25.70941	602.70135	-998.04541	
2679	26.780	-736.12415	-17.17193	-578.88977	678.57233	-6.76039	-494.43155	-807.37341	18.48632	639.31879	762.80463	25.56520	643.28717	-26.31571	600.60065	-999.02832	
2680	26.790	-736.85468	-18.27024	-579.07922	677.96820	-7.79395	-494.73209	-808.18201	19.68901	639.10400	762.14471	26.94138	642.81567	-27.23067	598.51587	-1000.99628	
2681	26.800	-737.62256	-19.66343	-579.51239	677.25751	-8.92444	-494.96954	-808.94800	20.92488	638.80499	760.94312	27.99795	642.27423	-27.82821	596.55646	-1002.31641	
2682	26.810	-738.57117	-20.94751	-579.75403	676.32794	-10.32112	-495.26474	-809.83502	21.99361	638.34979	759.97308	29.10171	641.92957	-29.11543	594.47510	-1004.05756	
2683	26.820	-739.24744	-22.13779	-579.95538	675.61359	-10.97320	-495.53030	-810.60901	23.34403	638.01935	759.59283	30.15245	641.56073	-29.05687	592.38928	-1005.19000	
2684	26.830	-740.04865	-23.21131	-580.38849	674.65308	-11.88975	-496.01950	-811.33215	24.57470	637.72662	758.94135	31.66325	641.35138	-30.48555	590.51221	-1006.62170	
2685	26.840	-740.81140	-24.26073	-580.31042	674.32184	-13.15025	-495.93665	-811.95758	25.80382	637.28442	758.17200	32.90194	640.93335	-31.10234	588.63336	-1008.28058	
